<svg width="18" height="16" viewBox="0 0 18 16" fill="none" xmlns="http://www.w3.org/2000/svg">
<path d="M17.7145 7.99952C17.7145 8.5171 17.2942 8.93741 16.7766 8.93741H3.52704L8.71063 13.8827C9.0866 14.2404 9.10004 14.8362 8.74236 15.2085C8.38471 15.5833 7.79158 15.5967 7.41658 15.2402L0.54159 8.67774C0.354969 8.50342 0.25 8.25733 0.25 7.99952C0.25 7.7417 0.354969 7.49952 0.540515 7.31983L7.41551 0.757333C7.78875 0.402255 8.3825 0.415536 8.74188 0.790536C9.09953 1.16163 9.08609 1.75733 8.71014 2.11632L3.52655 7.06163H16.8117C17.3278 7.06202 17.7145 7.48389 17.7145 7.99952Z" fill="#50585E"/>
</svg>
