<svg width="20" height="21" viewBox="0 0 20 21" fill="currentColor" xmlns="http://www.w3.org/2000/svg">
<path d="M17.8571 20.9744H2.14286C0.959375 20.9744 0 20.015 0 18.8315V3.11722C0 1.93374 0.959375 0.974365 2.14286 0.974365H17.8571C19.0406 0.974365 20 1.93374 20 3.11722V18.8315C20 20.015 19.0406 20.9744 17.8571 20.9744ZM8.71937 16.5967L16.9337 8.38245C17.2126 8.10352 17.2126 7.65124 16.9337 7.37231L15.9235 6.36218C15.6446 6.08325 15.1923 6.0832 14.9133 6.36218L8.21429 13.0612L5.08665 9.93356C4.80772 9.65463 4.35545 9.65463 4.07647 9.93356L3.06634 10.9437C2.78741 11.2226 2.78741 11.6749 3.06634 11.9538L7.7092 16.5967C7.98817 16.8757 8.4404 16.8757 8.71937 16.5967Z" fill="#3498DB"/>
</svg>
