<svg viewBox="0 0 111 20" fill="none" xmlns="http://www.w3.org/2000/svg">
<path d="M75.9965 5.21939H72.4922V3.04761H82.1253V5.21939H78.5667V15.3845H76.0014V5.21939H75.9965Z" fill="#1548D5"/>
<path d="M82.9355 4.33542C82.9355 3.5703 83.5682 2.94775 84.4332 2.94775C85.2981 2.94775 85.9308 3.57505 85.9308 4.33542C85.9308 5.09578 85.2783 5.74209 84.4332 5.74209C83.588 5.74209 82.9355 5.11479 82.9355 4.33542ZM83.2222 6.88739H85.5897V15.3844H83.2222V6.88739Z" fill="#1548D5"/>
<path d="M87.3253 6.88723H89.6928V7.99926H89.7125C90.4193 7.18187 91.3733 6.76367 92.3519 6.76367C93.5085 6.76367 94.4278 7.18187 94.9517 8.09906H94.9863C95.7079 7.21514 96.8101 6.76367 98.0754 6.76367C99.9734 6.76367 101.184 7.85669 101.184 10.4657V15.3843H98.8168V11.0074C98.8168 9.65305 98.3819 8.8024 97.2797 8.8024C96.2862 8.8024 95.4707 9.61979 95.4707 11.15V15.389H93.1032V11.0122C93.1032 9.6578 92.6336 8.80715 91.5512 8.80715C90.4688 8.80715 89.6878 9.62454 89.6878 11.1548V15.3938H87.3203V6.88723H87.3253Z" fill="#1548D5"/>
<path d="M110.852 11.8772H104.654C104.94 12.9037 105.791 13.512 106.987 13.512C107.98 13.512 108.667 13.1128 109.137 12.5568L110.674 13.9302C109.932 14.8522 108.796 15.546 106.824 15.546C104.115 15.546 102.197 13.7924 102.197 11.1311C102.197 8.46987 104.061 6.76855 106.68 6.76855C109.3 6.76855 110.911 8.57442 110.911 11.0599C110.911 11.3355 110.877 11.7394 110.857 11.8772H110.852ZM104.674 10.2425H108.558C108.321 9.33953 107.693 8.75025 106.66 8.75025C105.702 8.75025 104.945 9.273 104.674 10.2425Z" fill="#1548D5"/>
<path d="M32.6348 3.04736H35.1852L39.1244 10.0665H39.159L43.0983 3.04736H45.6487V15.3843H43.1181V7.75686H43.0835L39.9548 13.0556H38.3089L35.2 7.73785H35.1654V15.3843H32.6348V3.04736Z" fill="#0076E6"/>
<path d="M47.1406 4.33053C47.1406 3.56542 47.7733 2.94287 48.6382 2.94287C49.5032 2.94287 50.1408 3.57017 50.1408 4.33053C50.1408 5.0909 49.4884 5.73721 48.6382 5.73721C47.7881 5.73721 47.1406 5.10991 47.1406 4.33053ZM47.4322 6.88725H49.7998V15.3843H47.4322V6.88725Z" fill="#0076E6"/>
<path d="M51.5362 6.88723H53.9037V7.98025H53.9383C54.6451 7.18187 55.6534 6.76367 56.7556 6.76367C58.6338 6.76367 59.9535 7.73789 59.9535 10.3421V15.3795H57.586V10.9124C57.586 9.29663 56.9879 8.79289 55.8857 8.79289C54.6945 8.79289 53.8988 9.59127 53.8988 11.1215V15.3795H51.5312V6.88723H51.5362Z" fill="#0076E6"/>
<path d="M60.9307 11.1595C60.9307 8.58856 62.7397 6.76369 65.1072 6.76369C66.1897 6.76369 67.1288 7.14387 67.7812 7.87572H67.8158V2.59595H70.1635V15.3843H67.9048V14.3436H67.885C67.2721 15.1087 66.3478 15.5411 65.1567 15.5411C62.715 15.5411 60.9258 13.7875 60.9258 11.1643L60.9307 11.1595ZM67.9048 11.1785C67.9048 9.80514 66.9459 8.79766 65.5916 8.79766C64.3263 8.79766 63.3328 9.7196 63.3328 11.1785C63.3328 12.5329 64.2719 13.4881 65.5916 13.4881C66.9113 13.4881 67.9048 12.5662 67.9048 11.1785Z" fill="#0076E6"/>
<path d="M0.236488 16.2397C5.68325 21.2534 14.318 21.2534 19.7648 16.2397C19.8883 16.1257 19.8883 15.9403 19.7648 15.8215L17.6246 13.7686C13.4135 17.8175 6.58281 17.8175 2.36676 13.7686L0.231545 15.8263C0.112922 15.9403 0.112922 16.1304 0.231545 16.2445L0.236488 16.2397Z" fill="#1548D5"/>
<path d="M12.0416 10.2412C12.1774 9.15716 11.3736 8.17254 10.2462 8.04193C9.11874 7.91133 8.09467 8.68421 7.95884 9.76821C7.82301 10.8522 8.62684 11.8368 9.75426 11.9674C10.8817 12.098 11.9057 11.3252 12.0416 10.2412Z" fill="#0076E6"/>
<path d="M19.7694 3.76023C14.3226 -1.25341 5.68788 -1.25341 0.241112 3.76023C0.117546 3.87429 0.117546 4.05963 0.241112 4.17843L2.38126 6.23141C6.59237 2.18248 13.4231 2.18248 17.6391 6.23141L19.7793 4.17843C19.8979 4.06438 19.8979 3.87429 19.7793 3.76023H19.7694Z" fill="#1548D5"/>
</svg>
